<?xml version="1.0" encoding="UTF-8"?> <svg xmlns="http://www.w3.org/2000/svg" viewBox="0 0 161.66 68.41"><defs><style>.a{fill:#085583;}.b{fill:#a4df01;}</style></defs><path class="a" d="M144.11,38.25c-.16.91-.31,1.8-.47,2.68q-.57,3.26-1.15,6.51c-.29,1.68-.59,3.36-.89,5.05,0,0,0,.08,0,.13-.06.29-.06.29-.35.29q-2,0-4.08,0c-.27,0-.27,0-.23-.27.28-1.55.55-3.11.83-4.66.4-2.3.81-4.6,1.21-6.9s.81-4.62,1.22-6.93.77-4.36,1.15-6.54.8-4.55,1.22-6.82a22.89,22.89,0,0,0,.36-5.6,13.58,13.58,0,0,0-1.56-5.6,11.07,11.07,0,0,0-3.45-3.78,16.07,16.07,0,0,0-4.32-2.12,33.13,33.13,0,0,0-6.47-1.3,65.8,65.8,0,0,0-8.77-.26c-2,0-4,.17-6,.37-2.72.28-5.42.68-8.1,1.18-3.53.66-7,1.49-10.47,2.43-2.55.69-5.08,1.44-7.61,2.22a2.22,2.22,0,0,1-.37.09c.78-.4,1.59-.74,2.4-1.06a120.46,120.46,0,0,1,15.27-4.87c2.82-.68,5.66-1.24,8.52-1.66,2.17-.32,4.35-.56,6.54-.69,2.39-.15,4.78-.17,7.17-.1a43.46,43.46,0,0,1,7,.77A28.12,28.12,0,0,1,139.42,3a16,16,0,0,1,5.17,3.84,12.41,12.41,0,0,1,2.8,5.58,17.44,17.44,0,0,1,.22,5.72c-.18,1.57-.51,3.12-.77,4.67-.36,2.07-.73,4.13-1.09,6.19q-.62,3.42-1.22,6.86c-.1.54-.2,1.07-.29,1.62.15,0,.21-.14.28-.23q5.92-6.28,11.84-12.58a.94.94,0,0,1,.76-.34c1.37,0,2.75,0,4.12,0h.42a.47.47,0,0,1-.21.29c-4.22,4.24-8.41,8.53-12.61,12.8-.32.32-.29.21-.06.59q4.38,7.2,8.77,14.41l.26.43c-.07.1-.16.07-.23.07l-4.83,0a.42.42,0,0,1-.43-.26q-3.1-5.52-6.23-11l-1.77-3.12A.68.68,0,0,0,144.11,38.25Z"></path><path class="a" d="M89.47,32.17A11.77,11.77,0,0,0,88,27.83a7.4,7.4,0,0,0-3-2.89,9.53,9.53,0,0,0-4-1A14.47,14.47,0,0,0,75,25a.59.59,0,0,1-.34.09q1.25-6.85,2.42-13.73a.35.35,0,0,0-.23.07c-1.59.91-3.19,1.84-4.79,2.74a.47.47,0,0,0-.23.37l-.3,1.75c-.47,2.68-1,5.35-1.42,8l-1.41,8c-.45,2.57-.91,5.14-1.36,7.71l-1.17,6.63c-.26,1.51-.53,3-.8,4.54a.31.31,0,0,0,.19.38,14.16,14.16,0,0,0,1.72.81,16.14,16.14,0,0,0,5.41,1A17.26,17.26,0,0,0,77.17,53a14.15,14.15,0,0,0,8.07-5.27,19.69,19.69,0,0,0,3-5.64,24.85,24.85,0,0,0,1.26-5.84A18.13,18.13,0,0,0,89.47,32.17Zm-4.63,2.58a25.9,25.9,0,0,1-.45,3.83,25.37,25.37,0,0,1-1.46,5.05,13.35,13.35,0,0,1-2.25,3.72,8.27,8.27,0,0,1-5.44,2.9,11.25,11.25,0,0,1-4.68-.47c-.21-.06-.22-.07-.18-.29q.65-3.65,1.28-7.28l1.41-8c.32-1.84.62-3.68,1-5.5.22-1.08.07-.83,1-1.23a9.18,9.18,0,0,1,4.18-.7,5.16,5.16,0,0,1,5,4A13.12,13.12,0,0,1,84.84,34.75Z"></path><path class="a" d="M24.53,16.46c-.08.49-.17,1-.26,1.48L24,19.46c-.05.29-.05.29-.36.29H12.42a1.76,1.76,0,0,1-.23,0c-.18,0-.25.05-.28.23l-1,5.66c-.37,2.1-.73,4.19-1.1,6.28,0,.14,0,.28-.07.46H20.47a6.08,6.08,0,0,1-.16,1.09c-.09.64-.21,1.28-.32,1.92,0,.3,0,.3-.37.3H9.48c-.34,0-.34,0-.4.34-.46,2.59-.91,5.18-1.37,7.78-.31,1.8-.63,3.6-.94,5.4,0,.09,0,.17,0,.29H20c-.09.5-.16,1-.24,1.43s-.22,1.16-.31,1.74c0,.18-.1.26-.27.24a1.76,1.76,0,0,0-.23,0H4.5a5.47,5.47,0,0,1-1,0,2.64,2.64,0,0,1-1.13-.51,1.86,1.86,0,0,1-.75-1.5,11.12,11.12,0,0,1,.22-2c.43-2.45.87-4.9,1.3-7.34Q3.72,38.26,4.31,35l1.2-6.87c.37-2.07.73-4.14,1.1-6.21.16-.91.32-1.82.47-2.72a3.37,3.37,0,0,1,3.28-2.78c4.61,0,9.22,0,13.83,0A.85.85,0,0,1,24.53,16.46Z"></path><path class="a" d="M131,52.91H129c-.28,0-.28,0-.24-.27.23-1.3.45-2.59.68-3.89.38-2.19.77-4.38,1.15-6.57s.73-4.1,1.08-6.15c.25-1.41.53-2.8.72-4.22a5.33,5.33,0,0,0-.06-2,3.51,3.51,0,0,0-2.3-2.55,6.17,6.17,0,0,0-1.86-.39,14.14,14.14,0,0,0-6,.86.46.46,0,0,0-.34.41c-.24,1.44-.49,2.87-.74,4.31-.39,2.2-.77,4.4-1.16,6.6S119,43.68,118.62,46s-.79,4.47-1.18,6.7c0,.19-.11.23-.28.23h-4.28c-.23,0-.23,0-.19-.24.25-1.46.51-2.93.77-4.4.43-2.42.85-4.83,1.27-7.25l1.23-7c.47-2.65,1-5.31,1.41-8a.59.59,0,0,1,.41-.51,24.55,24.55,0,0,1,5.51-1.49,31.53,31.53,0,0,1,6.14-.31,10.69,10.69,0,0,1,4.27,1,5.86,5.86,0,0,1,3.44,4.76,10.42,10.42,0,0,1-.17,3.2c-.46,2.58-.91,5.16-1.37,7.74q-.6,3.47-1.22,6.93c-.31,1.74-.61,3.47-.92,5.21-.06.32-.06.31-.4.32h-2Z"></path><path class="a" d="M64.63,32.7a12.24,12.24,0,0,0-.9-4.13,7.46,7.46,0,0,0-6-4.67,14.23,14.23,0,0,0-3.45-.07A11.19,11.19,0,0,0,49.6,25.3a13.14,13.14,0,0,0-4.4,4.31A20.6,20.6,0,0,0,42.74,35a27.68,27.68,0,0,0-1.27,8.71,13.13,13.13,0,0,0,1.05,5.06A7.22,7.22,0,0,0,47.32,53a12,12,0,0,0,12-3.36,18.09,18.09,0,0,0,3.56-5.9,26.37,26.37,0,0,0,1.36-5.07A25.7,25.7,0,0,0,64.64,34C64.64,33.53,64.66,33.11,64.63,32.7ZM60,33.19a26.6,26.6,0,0,1-.27,3.71,36,36,0,0,1-.83,4.36,21.2,21.2,0,0,1-1.57,4.45,9.5,9.5,0,0,1-1.93,2.64,6.16,6.16,0,0,1-4.87,1.73,4.23,4.23,0,0,1-3-1.42,5.28,5.28,0,0,1-1.09-2.18,12.7,12.7,0,0,1-.31-4c.08-1.1.19-2.19.36-3.27a27.54,27.54,0,0,1,2.31-7.89,9.3,9.3,0,0,1,2.22-3,6.08,6.08,0,0,1,5.14-1.47,4,4,0,0,1,3,2.34A7.61,7.61,0,0,1,60,32,12.19,12.19,0,0,1,60,33.19Z"></path><path class="a" d="M112.43,29A5.67,5.67,0,0,0,110,25.25a7.76,7.76,0,0,0-2.38-1.08,15.78,15.78,0,0,0-5-.37,20.56,20.56,0,0,0-4.74.89,26.83,26.83,0,0,0-2.8,1c-.17.08-.19.16-.16.33.16.65.3,1.3.45,1.95a4.17,4.17,0,0,0,.17.7l.42-.18a26,26,0,0,1,2.72-1,14.05,14.05,0,0,1,5-.61,6.74,6.74,0,0,1,2.3.51,3.35,3.35,0,0,1,2,2.34,5.56,5.56,0,0,1,.12,1.63c-.06.87-.25,1.71-.38,2.57a.27.27,0,0,1-.29.27c-1.15.12-2.29.26-3.43.43a31.23,31.23,0,0,0-5.8,1.4A15.54,15.54,0,0,0,94,38.26a10,10,0,0,0-3.65,4.94,10.15,10.15,0,0,0-.55,4.5,5.56,5.56,0,0,0,2.1,3.82,8.09,8.09,0,0,0,2.5,1.27,14.83,14.83,0,0,0,3.8.59,26.14,26.14,0,0,0,6-.39,20.72,20.72,0,0,0,4.73-1.46.41.41,0,0,0,.29-.35l1-5.67c.36-2.06.73-4.12,1.09-6.18.4-2.3.85-4.59,1.19-6.9A10.21,10.21,0,0,0,112.43,29Zm-5.36,8.64c-.33,2-.68,3.93-1,5.89s-.69,3.95-1.11,5.91a.42.42,0,0,1-.27.33,10.43,10.43,0,0,1-2.5.69,12.89,12.89,0,0,1-4.51-.13,4.13,4.13,0,0,1-2.89-2,3.33,3.33,0,0,1-.43-1.57,9,9,0,0,1,1.18-4.95,7.56,7.56,0,0,1,3.12-2.94,17.38,17.38,0,0,1,4.55-1.56c1.32-.27,2.66-.46,4-.64A6.86,6.86,0,0,1,107.07,37.67Z"></path><path class="a" d="M42.25,25.6l-1.61,2.79c-.14,0-.2-.08-.28-.13a6.06,6.06,0,0,0-3-1.14,7.06,7.06,0,0,0-4.93,1.23,8.64,8.64,0,0,0-2.25,2.34,15.46,15.46,0,0,0-1.95,4.25,28,28,0,0,0-1.19,6.35,13.15,13.15,0,0,0,.5,4.91,5.41,5.41,0,0,0,2.06,2.9,4.61,4.61,0,0,0,2.67.78,8.55,8.55,0,0,0,4.1-1.06l.54-.29c.1,0,.09.12.11.19l.57,2.57c.06.26.06.26-.19.41a12.08,12.08,0,0,1-9,1.38A7,7,0,0,1,24.91,51a9.74,9.74,0,0,1-2.4-5,20.37,20.37,0,0,1-.16-5.73,26.21,26.21,0,0,1,1.81-7.18,16.75,16.75,0,0,1,4.3-6.3,11.23,11.23,0,0,1,5-2.71,13,13,0,0,1,4.31-.27,9,9,0,0,1,3.41,1A6.71,6.71,0,0,1,42.25,25.6Z"></path><path class="b" d="M78.53,59.48q-19.33,0-38.65,0l-26.5,0H.28c-.24,0-.33,0-.25-.31s.07-.48.1-.72.06-.18.19-.17a1.76,1.76,0,0,0,.23,0c6.77,0,13.54,0,20.31,0,1.5,0,3,.06,4.5.09H156.87c.4,0,.46-.1.35.42a4.34,4.34,0,0,0-.08.52.15.15,0,0,1-.17.15H78.53Z"></path><path class="a" d="M86,68.41c-.72,0-.56.08-.63-.56a1.57,1.57,0,0,1,0-.43.9.9,0,0,1,.71-.77,1,1,0,0,1,1,.23.88.88,0,0,1-.24,1.33,1.08,1.08,0,0,1-.52.18Z"></path></svg> 